# xmcd
#
# Track frame offsets: 
#        150
#        26557
#        39289
#        64337
#        83379
#        94459
#        114769
#        136653
#        150524
#        166501
#        187208
#        201014
#        216067
#        250231
#        272493
#
# Disc length: 3890 seconds
#
# Revision: 0
# Processed by: cddbd v1.5.2PL0 Copyright (c) Steve Scherf et al.
# Submitted via: ExactAudioCopy v0.99pb5
#
DISCID=ba0f300f
DTITLE=Various Artist - Living the Blues: Blues Guitar CD2
DYEAR=1900
DGENRE=Blues
TTITLE0=Stevie Ray Vaughan and Double Trouble - May I Have a Talk with Y
TTITLE0=ou
TTITLE1=Bo Diddley - Mumblin' Guitar
TTITLE2=Robert Cray and Albert Collins - The Dream
TTITLE3=B.B. King - I'm Movin' On
TTITLE4=Earl Hooker - Frog Hop
TTITLE5=Buddy Gay - Damn Right I'v Got the Blues
TTITLE6=John Mayall - A Big Man
TTITLE7=Robert Nighthawk - Black Angel Blues (Sweet Black Angel)
TTITLE8=Hound Dog Taylor - Ain't Got Nobody
TTITLE9=Alvin Lee - Real Life Blues
TTITLE10=Andrew Jr. Boy Jones - I Got a Stick
TTITLE11=Lonnie Brooks - Boomerang
TTITLE12=Tutu Jones - Too Blues to Be True
TTITLE13=Ronnie Earl - I Liked That Thing You Did
TTITLE14=Robert Ward - Your Love Is Amazing
EXTD=
EXTT0=
EXTT1=
EXTT2=
EXTT3=
EXTT4=
EXTT5=
EXTT6=
EXTT7=
EXTT8=
EXTT9=
EXTT10=
EXTT11=
EXTT12=
EXTT13=
EXTT14=
PLAYORDER=
